<?xml version="1.0" encoding="UTF-8"?>
<svg id="Capa_1" data-name="Capa 1" xmlns="http://www.w3.org/2000/svg" version="1.1" viewBox="0 0 1317.55 228.87">
  <defs>
    <style>
      .cls-1 {
        fill: #fff;
        stroke-width: 0px;
      }
    </style>
  </defs>
  <g>
    <path class="cls-1" d="M307.88,149.6h64.83c8.02,0,8.35-5.18,8.35-8.02,0-4.01-2.01-7.35-9.02-9.52l-45.78-13.7c-15.2-4.51-19.71-16.37-19.71-32.75,0-17.54,7.69-29.57,27.07-29.57h72.18v23.39h-60.48c-4.34,0-8.19,1.67-8.19,7.69,0,4.51,2.34,7.69,9.36,9.86l41.1,12.03c17.38,5.01,24.23,13.7,24.23,32.91s-6.85,31.08-26.73,31.08h-77.19v-23.39Z"/>
    <path class="cls-1" d="M509.88,126.88V56.04h30.07v72.34c0,35.09-20.21,45.95-54.47,45.95s-54.47-10.86-54.47-45.95V56.04h30.07v70.84c0,16.71,7.69,24.06,24.39,24.06s24.39-7.35,24.39-24.06Z"/>
    <path class="cls-1" d="M683.14,155.62c0,8.02-4.34,18.71-21.39,18.71-8.02,0-16.04-1.34-22.22-10.69l-45.61-68.67c-1.34-2.01-2.34-2.84-3.17-2.84-.67,0-2.01.34-2.01,3.34v77.52h-25.39v-99.91c0-12.7,9.69-18.38,22.05-18.38,8.35,0,16.37,2.34,21.55,10.03l45.95,69.34c.84,1.17,1.5,2.84,3.01,2.84,1.84,0,1.84-2.01,1.84-2.84V56.04h25.4v99.58Z"/>
    <path class="cls-1" d="M804.61,78.76h-60.15c-5.85,0-7.85,2.01-7.85,7.85v16.21h66.5v21.72h-66.5v17.88c0,5.85,2.01,7.85,7.85,7.85h60.82v22.72h-81.03c-10.86,0-17.71-5.35-17.71-17.88v-81.03c0-12.53,6.85-18.04,17.71-18.04h80.36v22.72Z"/>
    <path class="cls-1" d="M825.33,74.08c0-12.53,6.85-18.04,17.71-18.04h62.49c24.23,0,31.24,14.2,31.24,38.43,0,20.38-5.01,40.26-26.57,40.26h-8.35v.84l37.26,37.43h-36.92l-26.4-30.41c-4.34-4.85-10.53-10.03-10.53-16.54v-2.67c0-8.52,6.35-10.53,17.21-10.53h9.86c11.2,0,13.7-5.68,13.7-17.38s-3.51-16.04-14.87-16.04h-27.9c-5.85,0-7.85,2.01-7.85,7.85v85.71h-30.07v-98.91Z"/>
    <path class="cls-1" d="M1016.8,79.43c-23.39,0-31.08,7.52-31.08,35.09s7.69,35.09,31.08,35.09h12.7c5.85,0,7.85-2.01,7.85-7.85v-28.24h30.07v41.6c0,12.53-6.85,17.88-17.71,17.88h-44.44c-39.26,0-50.29-21.72-50.29-58.48s11.03-58.48,50.29-58.48h59.48v23.39h-47.95Z"/>
    <path class="cls-1" d="M1172.35,56.04h32.08l-50.12,82.87v34.08h-29.91v-34.08l-49.96-82.87h32.08l32.91,55.97,32.91-55.97Z"/>
    <path class="cls-1" d="M1213.62,149.6h64.83c8.02,0,8.35-5.18,8.35-8.02,0-4.01-2.01-7.35-9.02-9.52l-45.78-13.7c-15.2-4.51-19.71-16.37-19.71-32.75,0-17.54,7.69-29.57,27.07-29.57h72.18v23.39h-60.48c-4.34,0-8.19,1.67-8.19,7.69,0,4.51,2.34,7.69,9.36,9.86l41.1,12.03c17.38,5.01,24.23,13.7,24.23,32.91s-6.85,31.08-26.73,31.08h-77.19v-23.39Z"/>
  </g>
  <g>
    <rect class="cls-1" x="98.74" y="96.61" width="35.65" height="35.65" transform="translate(2.13 231) rotate(-90)"/>
    <rect class="cls-1" x="155.78" y="96.61" width="35.65" height="35.65" transform="translate(59.17 288.04) rotate(-90)"/>
    <rect class="cls-1" x="42.09" y="96.61" width="35.65" height="35.65" transform="translate(-54.52 174.35) rotate(-90)"/>
    <rect class="cls-1" x="101.78" y="45.63" width="29.57" height="29.57" transform="translate(56.16 176.98) rotate(-90)"/>
    <rect class="cls-1" x="108.42" y="0" width="16.3" height="16.3" transform="translate(108.42 124.72) rotate(-90)"/>
    <rect class="cls-1" x="164.54" y="3.62" width="9.06" height="9.06" transform="translate(160.92 177.23) rotate(-90)"/>
    <rect class="cls-1" x="219.75" y="55.88" width="9.06" height="9.06" transform="translate(163.87 284.69) rotate(-90)"/>
    <rect class="cls-1" x="219.75" y="163.93" width="9.06" height="9.06" transform="translate(55.82 392.74) rotate(-90)"/>
    <rect class="cls-1" x="164.54" y="216.19" width="9.06" height="9.06" transform="translate(-51.64 389.79) rotate(-90)"/>
    <rect class="cls-1" x="59.91" y="216.19" width="9.06" height="9.06" transform="translate(-156.27 285.16) rotate(-90)"/>
    <rect class="cls-1" x="3.62" y="163.93" width="9.06" height="9.06" transform="translate(-160.31 176.61) rotate(-90)"/>
    <rect class="cls-1" x="3.62" y="55.88" width="9.06" height="9.06" transform="translate(-52.26 68.56) rotate(-90)"/>
    <rect class="cls-1" x="59.91" y="3.62" width="9.06" height="9.06" transform="translate(56.29 72.6) rotate(-90)"/>
    <rect class="cls-1" x="108.42" y="212.57" width="16.3" height="16.3" transform="translate(-104.15 337.29) rotate(-90)"/>
    <rect class="cls-1" x="216.13" y="106.28" width="16.3" height="16.3" transform="translate(109.84 338.71) rotate(-90)"/>
    <rect class="cls-1" x="0" y="106.28" width="16.3" height="16.3" transform="translate(-106.28 122.59) rotate(-90)"/>
    <rect class="cls-1" x="157.94" y="49.27" width="22.28" height="22.28" transform="translate(108.67 229.48) rotate(-90)"/>
    <rect class="cls-1" x="53.31" y="49.27" width="22.28" height="22.28" transform="translate(4.04 124.85) rotate(-90)"/>
    <rect class="cls-1" x="101.78" y="153.68" width="29.57" height="29.57" transform="translate(-51.89 285.03) rotate(-90)"/>
    <rect class="cls-1" x="157.94" y="157.32" width="22.28" height="22.28" transform="translate(.61 337.54) rotate(-90)"/>
    <rect class="cls-1" x="53.31" y="157.32" width="22.28" height="22.28" transform="translate(-104.02 232.91) rotate(-90)"/>
  </g>
</svg>