<?xml version="1.0" encoding="UTF-8"?>
<svg id="Capa_1" data-name="Capa 1" xmlns="http://www.w3.org/2000/svg" version="1.1" viewBox="0 0 365.12 359.52">
  <defs>
    <style>
      .cls-1 {
        fill: #fff;
        stroke-width: 0px;
      }
    </style>
  </defs>
  <rect class="cls-1" x="155.11" y="151.76" width="56" height="56" transform="translate(3.35 362.87) rotate(-90)"/>
  <rect class="cls-1" x="244.71" y="151.76" width="56" height="56" transform="translate(92.95 452.47) rotate(-90)"/>
  <rect class="cls-1" x="66.12" y="151.76" width="56" height="56" transform="translate(-85.64 273.88) rotate(-90)"/>
  <rect class="cls-1" x="159.89" y="71.67" width="46.44" height="46.44" transform="translate(88.22 278) rotate(-90)"/>
  <rect class="cls-1" x="170.31" y="0" width="25.61" height="25.61" transform="translate(170.31 195.92) rotate(-90)"/>
  <rect class="cls-1" x="258.48" y="5.69" width="14.23" height="14.23" transform="translate(252.79 278.4) rotate(-90)"/>
  <rect class="cls-1" x="345.19" y="87.78" width="14.23" height="14.23" transform="translate(257.42 447.2) rotate(-90)"/>
  <rect class="cls-1" x="345.19" y="257.51" width="14.23" height="14.23" transform="translate(87.68 616.94) rotate(-90)"/>
  <rect class="cls-1" x="258.48" y="339.6" width="14.23" height="14.23" transform="translate(-81.12 612.31) rotate(-90)"/>
  <rect class="cls-1" x="94.12" y="339.6" width="14.23" height="14.23" transform="translate(-245.48 447.95) rotate(-90)"/>
  <rect class="cls-1" x="5.69" y="257.51" width="14.23" height="14.23" transform="translate(-251.82 277.43) rotate(-90)"/>
  <rect class="cls-1" x="5.69" y="87.78" width="14.23" height="14.23" transform="translate(-82.09 107.7) rotate(-90)"/>
  <rect class="cls-1" x="94.12" y="5.69" width="14.23" height="14.23" transform="translate(88.43 114.04) rotate(-90)"/>
  <rect class="cls-1" x="170.31" y="333.91" width="25.61" height="25.61" transform="translate(-163.61 529.83) rotate(-90)"/>
  <rect class="cls-1" x="339.51" y="166.96" width="25.61" height="25.61" transform="translate(172.55 532.07) rotate(-90)"/>
  <rect class="cls-1" x="0" y="166.96" width="25.61" height="25.61" transform="translate(-166.96 192.57) rotate(-90)"/>
  <rect class="cls-1" x="248.1" y="77.4" width="34.99" height="34.99" transform="translate(170.7 360.49) rotate(-90)"/>
  <rect class="cls-1" x="83.74" y="77.4" width="34.99" height="34.99" transform="translate(6.34 196.13) rotate(-90)"/>
  <rect class="cls-1" x="159.89" y="241.41" width="46.44" height="46.44" transform="translate(-81.52 447.74) rotate(-90)"/>
  <rect class="cls-1" x="248.1" y="247.13" width="34.99" height="34.99" transform="translate(.96 530.22) rotate(-90)"/>
  <rect class="cls-1" x="83.74" y="247.13" width="34.99" height="34.99" transform="translate(-163.39 365.86) rotate(-90)"/>
</svg>